Coordinates
version=1
nRows=10
nColumns=40
inDegrees=yes

Units are S.I. units (second, meters, Newtons, ...)
If the header above contains a line with 'inDegrees', this indicates whether rotational values are in degrees (yes) or radians (no).

endheader
time	pelvis_tilt	pelvis_list	pelvis_rotation	pelvis_tx	pelvis_ty	pelvis_tz	hip_flexion_r	hip_adduction_r	hip_rotation_r	knee_angle_r	knee_angle_r_beta	ankle_angle_r	subtalar_angle_r	mtp_angle_r	hip_flexion_l	hip_adduction_l	hip_rotation_l	knee_angle_l	knee_angle_l_beta	ankle_angle_l	subtalar_angle_l	mtp_angle_l	lumbar_extension	lumbar_bending	lumbar_rotation	arm_flex_r	arm_add_r	arm_rot_r	elbow_flex_r	pro_sup_r	wrist_flex_r	wrist_dev_r	arm_flex_l	arm_add_l	arm_rot_l	elbow_flex_l	pro_sup_l	wrist_flex_l	wrist_dev_l
      8.65000000	    -28.65531578	    -40.95895670	     89.98853393	      0.34351949	      0.83083232	     -0.67221402	     75.09618791	      1.05128096	     39.97843985	     52.12430340	      0.90974071	     -7.50970666	      0.00000000	      0.00000000	     21.73074401	     29.63677183	    -39.98083719	      0.02163442	      0.00037759	     12.68133987	      0.00000000	      0.00000000	     49.88328107	    -35.88249616	     89.66241042	     19.77987133	      6.33021564	      4.24389554	     11.19721553	     35.33933458	      0.00000000	      0.00000000	     12.94907709	    -13.26958007	     -3.98140813	     20.45182309	     44.52002171	      0.00000000	      0.00000000
      8.65500000	    -28.68077613	    -40.86648291	     89.98857007	      0.34350372	      0.83091461	     -0.67229323	     75.00674468	      1.03718876	     39.97847218	     52.17753058	      0.91066970	     -7.39629125	      0.00000000	      0.00000000	     21.62275931	     29.65799937	    -39.98084711	      0.02161507	      0.00037725	     12.52749351	      0.00000000	      0.00000000	     49.77579477	    -35.88511811	     89.65850242	     20.37753609	      6.49341478	      4.33230050	     10.13667627	     35.02047083	      0.00000000	      0.00000000	     13.50171163	    -13.00268100	     -4.84996229	     19.50796004	     44.43307084	      0.00000000	      0.00000000
      8.66000000	    -28.66530561	    -41.00275414	     89.98852917	      0.34335870	      0.83074906	     -0.67211969	     75.17617106	      1.05577297	     39.97845714	     52.19107266	      0.91090606	     -7.49225485	      0.00000000	      0.00000000	     21.77292073	     29.65394972	    -39.98084396	      0.02162992	      0.00037751	     12.66510467	      0.00000000	      0.00000000	     49.92351426	    -35.86243407	     89.65472860	     20.06283820	      6.39999590	      4.32139726	     10.69103236	     35.07147506	      0.00000000	      0.00000000	     13.27686451	    -13.01598266	     -5.03488109	     19.89598381	     44.43866342	      0.00000000	      0.00000000
      8.66500000	    -28.67338446	    -40.91244989	     89.98855956	      0.34331205	      0.83083648	     -0.67217068	     75.08629149	      1.04468271	     39.97846992	     52.21344691	      0.91129656	     -7.39041388	      0.00000000	      0.00000000	     21.66974724	     29.66138661	    -39.98085284	      0.02160560	      0.00037709	     12.53528705	      0.00000000	      0.00000000	     49.80411130	    -35.80698095	     89.66158284	     19.89815253	      6.32604730	      4.42940346	     10.90267803	     35.25618413	      0.00000000	      0.00000000	     13.43205677	    -13.08156747	     -4.23912241	     19.50259786	     44.34857577	      0.00000000	      0.00000000
      8.67000000	    -28.63201822	    -41.03241558	     89.98853681	      0.34308373	      0.83066962	     -0.67197112	     75.20034655	      1.07384779	     39.97854413	     52.16041679	      0.91037101	     -7.49524609	      0.00000000	      0.00000000	     21.81352709	     29.64197695	    -39.98086516	      0.02159222	      0.00037686	     12.77742657	      0.00000000	      0.00000000	     49.91901744	    -35.72862869	     89.66659454	     19.73272884	      6.26290188	      4.42473339	     11.13045012	     35.28387092	      0.00000000	      0.00000000	     13.22340426	    -13.03712167	     -4.44071519	     19.83074883	     44.35725938	      0.00000000	      0.00000000
      8.67500000	    -28.65777685	    -40.90842670	     89.98856755	      0.34299580	      0.83080380	     -0.67202252	     75.09171210	      1.04381847	     39.97851290	     52.21466420	      0.91131781	     -7.36805817	      0.00000000	      0.00000000	     21.66956647	     29.66847247	    -39.98086682	      0.02159390	      0.00037688	     12.55211271	      0.00000000	      0.00000000	     49.76641605	    -35.70848322	     89.65575865	     20.13435797	      6.39231368	      4.41539998	     10.44881912	     34.02725118	      0.00000000	      0.00000000	     14.58641051	    -12.34595589	     -7.15812509	     17.63831097	     44.33995879	      0.00000000	      0.00000000
      8.68000000	    -28.65672302	    -41.05771587	     89.98856788	      0.34281284	      0.83058911	     -0.67181487	     75.27326781	      1.05623464	     39.97854777	     52.24508587	      0.91184877	     -7.42897908	      0.00000000	      0.00000000	     21.82968158	     29.67198438	    -39.98089228	      0.02157732	      0.00037660	     12.52532796	      0.00000000	      0.00000000	     49.90381880	    -35.65642045	     89.66124430	     19.74718361	      6.25476981	      4.36265947	     11.04994745	     34.50242160	      0.00000000	      0.00000000	     14.10040976	    -12.54714282	     -6.08327031	     18.32116296	     44.28458343	      0.00000000	      0.00000000
      8.68500000	    -28.65567447	    -40.96636820	     89.98858471	      0.34278460	      0.83068243	     -0.67186902	     75.17600291	      1.05379012	     39.97854177	     52.24506339	      0.91184837	     -7.38531548	      0.00000000	      0.00000000	     21.72912148	     29.67581399	    -39.98089326	      0.02156948	      0.00037646	     12.60624368	      0.00000000	      0.00000000	     49.81148690	    -35.63442150	     89.65860849	     19.85820674	      6.29701838	      4.33180146	     10.86763964	     34.48070342	      0.00000000	      0.00000000	     14.01602756	    -12.57090016	     -5.92685555	     18.41186895	     44.27620615	      0.00000000	      0.00000000
      8.69000000	    -28.63662135	    -41.09760252	     89.98855160	      0.34259354	      0.83051084	     -0.67172491	     75.32587501	      1.06572653	     39.97853760	     52.23730481	      0.91171296	     -7.46556332	      0.00000000	      0.00000000	     21.87527339	     29.67053071	    -39.98088918	      0.02159878	      0.00037697	     12.79975555	      0.00000000	      0.00000000	     49.95210142	    -35.59416444	     89.65479120	     19.53375798	      6.20153592	      4.31674380	     11.44394639	     34.57631250	      0.00000000	      0.00000000	     13.70187771	    -12.59256791	     -6.09154742	     18.91280374	     44.28233007	      0.00000000	      0.00000000
      8.69500000	    -28.63115798	    -41.13258914	     89.98853525	      0.34241900	      0.83043394	     -0.67175998	     75.37084321	      1.07587091	     39.97854240	     52.28256152	      0.91250284	     -7.44523966	      0.00000000	      0.00000000	     21.90552330	     29.67743140	    -39.98087270	      0.02161836	      0.00037731	     12.79888616	      0.00000000	      0.00000000	     50.01189266	    -35.56942027	     89.64941364	     19.16676285	      6.10684813	      4.29455934	     12.09141391	     34.70344156	      0.00000000	      0.00000000	     13.37482209	    -12.64923249	     -6.18602424	     19.43343579	     44.28352593	      0.00000000	      0.00000000
